<svg width="317" height="57" viewBox="0 0 317 57" fill="none" xmlns="http://www.w3.org/2000/svg">
<path d="M96.6305 39.0653C93.4173 39.3348 90.4091 39.0038 87.6733 38.0813C83.8011 36.7752 80.5556 34.324 78.0249 30.7921C75.2657 26.9439 71.3963 25.3478 66.1884 25.9189C62.6501 26.3055 59.6185 27.6204 58.6138 28.0948C58.4146 28.1885 58.1744 28.1124 58.0719 27.9162L54.6185 21.5026C54.5072 21.2946 54.5892 21.0399 54.8001 20.9344C56.0332 20.3253 60.0754 18.4861 65.0168 17.8916C68.602 17.4611 71.9499 17.7598 74.9669 18.7761C78.8392 20.0822 82.0846 22.5364 84.6153 26.0682C87.3716 29.9164 91.2439 31.5096 96.4489 30.9356C99.9872 30.5461 103.016 29.2311 104.024 28.7538C104.223 28.6601 104.463 28.7362 104.565 28.9324L108.022 35.3431C108.133 35.551 108.051 35.8058 107.84 35.9112C106.607 36.5204 102.568 38.3625 97.6235 38.9599C97.2895 39.0009 96.9586 39.0331 96.6305 39.0624V39.0653Z" fill="#F9BD00"/>
<path d="M97.8812 16.5765C97.808 16.4417 97.6644 16.3656 97.515 16.3715C94.8994 16.5062 90.8748 15.9263 87.7963 11.9551C84.2257 7.35138 78.8802 4.93237 72.3278 4.95872C68.6957 4.97337 65.7051 5.73773 64.4426 6.11552C64.2054 6.1858 64.0941 6.45816 64.2142 6.67488L67.814 13.3199C67.8961 13.4721 68.0689 13.5512 68.2358 13.5161C69.3401 13.2847 70.8779 13.0504 72.568 13.0651C76.4607 13.0944 79.4279 14.3917 81.3875 16.9191C84.8789 21.4233 89.6739 24.0209 95.2567 24.4339C96.4811 24.5247 97.6146 24.4983 98.6105 24.4134C99.7089 24.3226 100.64 24.1586 101.34 24.0063C101.595 23.9506 101.721 23.6666 101.598 23.4381L97.8812 16.5765Z" fill="#F9BD00"/>
<path d="M68.2744 39.4281C70.9371 39.4281 73.0956 37.2699 73.0956 34.6077C73.0956 31.9454 70.9371 29.7872 68.2744 29.7872C65.6116 29.7872 63.4531 31.9454 63.4531 34.6077C63.4531 37.2699 65.6116 39.4281 68.2744 39.4281Z" fill="#F9BD00"/>
<path d="M92.9578 52.0417C95.6205 52.0417 97.7791 49.8836 97.7791 47.2213C97.7791 44.559 95.6205 42.4008 92.9578 42.4008C90.2951 42.4008 88.1365 44.559 88.1365 47.2213C88.1365 49.8836 90.2951 52.0417 92.9578 52.0417Z" fill="#F9BD00"/>
<path d="M187.755 35.2434C187.687 35.0706 187.547 34.9446 187.368 34.8978C187.189 34.8509 187.005 34.8861 186.858 35.0003C186.302 35.4366 185.584 35.6592 184.726 35.6592C184.058 35.6592 183.563 35.4747 183.212 35.0969C182.854 34.7104 182.673 34.1364 182.673 33.3925V24.9904C182.673 24.9611 182.696 24.9347 182.728 24.9347H187.184C187.503 24.9347 187.761 24.6741 187.761 24.3578V20.7995C187.761 20.4803 187.5 20.2226 187.184 20.2226H182.728C182.699 20.2226 182.673 20.1992 182.673 20.167V16.4594C182.673 16.1401 182.412 15.8824 182.093 15.8824H177.644C177.324 15.8824 177.064 16.1431 177.064 16.4594V20.167C177.064 20.1962 177.04 20.2226 177.008 20.2226H174.509C174.19 20.2226 173.929 20.4833 173.929 20.7995V24.3578C173.929 24.677 174.19 24.9347 174.509 24.9347H177.008C177.037 24.9347 177.064 24.9581 177.064 24.9904V33.5008C177.064 35.7676 177.699 37.5189 178.953 38.705C180.198 39.8852 181.958 40.4826 184.19 40.4826C185.045 40.4826 185.889 40.3684 186.694 40.14C187.529 39.9057 188.077 39.5952 188.645 39.197L188.806 39.074C189.011 38.9187 189.087 38.6405 188.994 38.4033L187.752 35.2434H187.755Z" fill="#0D4C3B"/>
<path d="M136.695 32.1008C136.581 31.9924 136.431 31.9368 136.273 31.9427C136.115 31.9485 135.972 32.0159 135.866 32.133L135.852 32.1477C134.955 33.1375 133.945 33.8814 132.843 34.3617C131.742 34.842 130.524 35.085 129.229 35.085C127.934 35.085 126.722 34.8712 125.652 34.4466C124.586 34.0249 123.649 33.4216 122.867 32.6484C122.085 31.8782 121.467 30.9528 121.036 29.8985C120.603 28.8442 120.383 27.6611 120.383 26.3842C120.383 25.1073 120.603 23.9271 121.036 22.8699C121.47 21.8156 122.085 20.8931 122.867 20.1229C123.649 19.3526 124.586 18.7464 125.652 18.3247C126.722 17.9001 127.925 17.6863 129.229 17.6863C130.532 17.6863 131.742 17.9293 132.843 18.4096C133.945 18.8899 134.958 19.625 135.869 20.6061C135.975 20.7203 136.118 20.7847 136.273 20.7906C136.429 20.7964 136.575 20.7408 136.689 20.6324L139.891 17.6218C140.113 17.411 140.134 17.0625 139.923 16.8135C138.631 15.2848 137.029 14.1163 135.16 13.3402C133.306 12.57 131.232 12.1805 128.997 12.1805C126.891 12.1805 124.926 12.5319 123.148 13.2231C121.37 13.9142 119.791 14.91 118.456 16.181C117.117 17.4549 116.065 18.9778 115.333 20.7056C114.598 22.4335 114.229 24.343 114.229 26.3813C114.229 28.4196 114.601 30.3261 115.333 32.0569C116.068 33.7877 117.111 35.3076 118.435 36.5815C119.759 37.8526 121.338 38.8483 123.13 39.5424C124.917 40.2335 126.88 40.5849 128.959 40.5849C131.221 40.5849 133.309 40.1866 135.163 39.4047C137.029 38.6169 138.628 37.4543 139.932 35.9431C140.134 35.7088 140.116 35.3603 139.891 35.1465L136.689 32.0979L136.695 32.1008Z" fill="#0D4C3B"/>
<path d="M156.806 21.9829C155.198 20.5772 152.922 19.8655 150.037 19.8655C148.473 19.8655 146.944 20.0705 145.488 20.4747C144.012 20.8847 143.066 21.242 141.997 22.062L141.648 22.3285C141.417 22.5042 141.349 22.8176 141.487 23.0723L143.227 26.3026C143.309 26.4549 143.455 26.5632 143.625 26.5954C143.795 26.6277 143.971 26.5837 144.105 26.4724C144.756 25.9307 145.57 25.5002 146.528 25.1897C147.5 24.8764 148.499 24.7182 149.501 24.7182C150.933 24.7182 151.996 25.0316 152.667 25.6495C153.265 26.2001 153.584 26.941 153.646 27.9104C153.646 27.9309 153.637 27.9485 153.631 27.9543C153.622 27.9631 153.61 27.9719 153.59 27.9719H149.325C147.333 27.9719 145.702 28.2384 144.472 28.7655C143.2 29.3103 142.266 30.0717 141.695 31.0293C141.132 31.9694 140.848 33.0384 140.848 34.2069C140.848 35.3754 141.173 36.5058 141.818 37.4635C142.456 38.4152 143.37 39.1679 144.533 39.695C145.673 40.2134 147.008 40.477 148.508 40.477C150.286 40.477 151.786 40.1402 152.972 39.4783C153.276 39.3085 153.561 39.1181 153.821 38.9102C153.839 38.8955 153.859 38.8926 153.88 38.9043C153.9 38.9131 153.909 38.9307 153.909 38.9512V39.6482C153.909 39.9674 154.17 40.228 154.489 40.228H158.689C159.009 40.228 159.269 39.9674 159.269 39.6482V28.5137C159.269 25.6027 158.443 23.4033 156.812 21.9771L156.806 21.9829ZM153.657 32.1422L153.651 33.6124C153.317 34.4119 152.802 35.0005 152.078 35.4164C151.305 35.8615 150.415 36.087 149.431 36.087C148.446 36.087 147.641 35.8849 147.105 35.4896C146.61 35.1235 146.378 34.6608 146.378 34.0341C146.378 33.4776 146.569 33.0413 146.976 32.6606C147.257 32.3999 147.948 32.0866 149.641 32.0866H153.599C153.628 32.0866 153.654 32.11 153.654 32.1422H153.657Z" fill="#0D4C3B"/>
<path d="M172.049 19.8656C170.133 19.8656 168.502 20.2258 167.201 20.9316C166.747 21.1776 166.328 21.4676 165.956 21.7956C165.95 21.8014 165.93 21.819 165.901 21.8044C165.88 21.7956 165.868 21.778 165.868 21.7546V20.6563C165.868 20.3371 165.608 20.0765 165.288 20.0765H161.053C160.734 20.0765 160.473 20.3371 160.473 20.6563V39.6541C160.473 39.9734 160.734 40.2311 161.053 40.2311H165.502C165.822 40.2311 166.082 39.9704 166.082 39.6541V30.4408C166.082 28.6661 166.527 27.3248 167.403 26.4579C168.282 25.5881 169.5 25.1488 171.018 25.1488C171.167 25.1488 171.319 25.1547 171.475 25.1664C171.606 25.1752 171.753 25.2015 171.911 25.2396C172.084 25.2835 172.266 25.2455 172.406 25.1342C172.547 25.0229 172.629 24.8589 172.629 24.6773V20.4426C172.629 20.1233 172.368 19.8627 172.049 19.8627V19.8656Z" fill="#0D4C3B"/>
<path d="M222.397 20.3254C222.289 20.1702 222.113 20.0765 221.923 20.0765H217.971C217.728 20.0765 217.511 20.2288 217.429 20.4543L212.857 32.9037C212.857 32.9037 212.845 32.9389 212.807 32.9389C212.769 32.9389 212.76 32.9125 212.758 32.9037L208.238 20.4572C208.156 20.2288 207.936 20.0765 207.693 20.0765H203.956C203.715 20.0765 203.499 20.2288 203.414 20.4514L198.777 32.8569C198.777 32.8569 198.762 32.892 198.727 32.892C198.689 32.892 198.68 32.8657 198.677 32.8569L194.254 20.4601C194.172 20.2317 193.953 20.0765 193.71 20.0765H189.509C189.319 20.0765 189.143 20.1702 189.035 20.3225C188.926 20.4748 188.9 20.6769 188.967 20.8526L195.942 39.8504C196.024 40.0759 196.243 40.2281 196.483 40.2281H200.754C200.991 40.2281 201.211 40.0788 201.296 39.8562L205.693 28.3293C205.693 28.3293 205.707 28.2941 205.742 28.2941C205.78 28.2941 205.789 28.3205 205.792 28.3293L210.104 39.8533C210.189 40.0788 210.405 40.2281 210.646 40.2281H214.916C215.156 40.2281 215.376 40.0759 215.458 39.8504L222.467 20.8526C222.532 20.6739 222.508 20.4777 222.4 20.3225L222.397 20.3254Z" fill="#0D4C3B"/>
<path d="M240.435 37.1852L240.76 36.8045L238.047 33.6885C237.939 33.5655 237.784 33.4923 237.623 33.4894C237.459 33.4835 237.3 33.5538 237.189 33.6739C236.586 34.3181 235.891 34.7955 235.124 35.0942C234.342 35.3988 233.443 35.554 232.453 35.554C231.313 35.554 230.3 35.3344 229.439 34.9039C228.595 34.4821 227.933 33.8759 227.47 33.0969C227.309 32.8246 227.172 32.5317 227.066 32.2271C227.06 32.2125 227.066 32.1978 227.072 32.1832C227.078 32.1744 227.092 32.1598 227.119 32.1598H241.205C241.501 32.1598 241.747 31.9372 241.779 31.6443C241.802 31.4218 241.823 31.1816 241.835 30.9327C241.846 30.6867 241.852 30.4612 241.852 30.265C241.852 28.1827 241.407 26.3377 240.531 24.7856C239.652 23.2276 238.428 22.0034 236.893 21.1483C235.364 20.296 233.607 19.8655 231.665 19.8655C229.723 19.8655 227.875 20.3107 226.31 21.1834C224.74 22.062 223.496 23.2891 222.605 24.8324C221.715 26.3729 221.264 28.1652 221.264 30.1566C221.264 32.1481 221.726 33.914 222.643 35.4662C223.56 37.0242 224.869 38.263 226.533 39.1533C228.188 40.0377 230.142 40.4828 232.338 40.4828C234.067 40.4828 235.631 40.1988 236.99 39.6394C238.361 39.0742 239.518 38.2483 240.429 37.1852H240.435ZM229.096 25.2132C229.822 24.7914 230.686 24.5806 231.671 24.5806C232.655 24.5806 233.484 24.7944 234.21 25.2132C234.937 25.6349 235.517 26.2206 235.938 26.9557C236.117 27.269 236.261 27.6146 236.36 27.9777C236.366 27.9982 236.36 28.0158 236.351 28.0246C236.343 28.0334 236.331 28.048 236.307 28.048H227.043C227.019 28.048 227.005 28.0363 226.999 28.0246C226.99 28.0158 226.984 27.9982 226.99 27.9777C227.09 27.6175 227.227 27.2749 227.397 26.9644C227.807 26.2206 228.378 25.629 229.102 25.2132H229.096Z" fill="#0D4C3B"/>
<path d="M262.336 20.34C262.227 20.176 262.048 20.0793 261.852 20.0793H257.582C257.35 20.0793 257.139 20.217 257.049 20.4308L251.234 34.0107L251.316 32.8129C251.322 32.7221 251.307 32.6313 251.272 32.5464L246.12 20.4308C246.029 20.217 245.821 20.0793 245.587 20.0793H240.962C240.766 20.0793 240.584 20.176 240.479 20.34C240.37 20.504 240.353 20.709 240.432 20.8876L248.627 39.6892C248.627 39.6892 248.633 39.7185 248.627 39.7331L248.405 40.2339C248.018 41.0949 247.605 41.707 247.18 42.0497C246.791 42.3659 246.255 42.527 245.587 42.527C245.074 42.527 244.562 42.4216 244.067 42.2166C243.56 42.0057 243.1 41.7158 242.699 41.3585C242.567 41.2384 242.388 41.1886 242.216 41.2179C242.04 41.2472 241.89 41.3556 241.805 41.5108L239.808 45.1891L240.153 45.4937C240.827 46.0882 241.671 46.5568 242.667 46.8906C243.648 47.2186 244.644 47.3826 245.625 47.3826C246.756 47.3826 247.813 47.204 248.762 46.8467C249.737 46.4835 250.631 45.8422 251.416 44.9402C252.177 44.0675 252.875 42.8784 253.487 41.4112L262.382 20.8847C262.461 20.7061 262.444 20.5011 262.336 20.3371V20.34Z" fill="#0D4C3B"/>
</svg>
